<svg width="24" height="14" viewBox="0 0 24 14" fill="none" xmlns="http://www.w3.org/2000/svg">
<path d="M22.7333 5.76855H1.26667C0.567106 5.76855 0 6.25927 0 6.8646V6.97997C0 7.5853 0.567106 8.07602 1.26667 8.07602H22.7333C23.4329 8.07602 24 7.5853 24 6.97997V6.8646C24 6.25927 23.4329 5.76855 22.7333 5.76855Z" fill="#35414B"/>
<path d="M22.7333 11.5374H1.26667C0.567106 11.5374 0 12.0281 0 12.6334V12.7488C0 13.3541 0.567106 13.8448 1.26667 13.8448H22.7333C23.4329 13.8448 24 13.3541 24 12.7488V12.6334C24 12.0281 23.4329 11.5374 22.7333 11.5374Z" fill="#35414B"/>
<path d="M22.7333 0H1.26667C0.567106 0 0 0.490718 0 1.09605V1.21142C0 1.81675 0.567106 2.30747 1.26667 2.30747H22.7333C23.4329 2.30747 24 1.81675 24 1.21142V1.09605C24 0.490718 23.4329 0 22.7333 0Z" fill="#35414B"/>
</svg>
